<!DOCTYPE svg PUBLIC "-//W3C//DTD SVG 1.1//EN" "http://www.w3.org/Graphics/SVG/1.1/DTD/svg11.dtd">
<!-- Uploaded to: SVG Repo, www.svgrepo.com, Transformed by: SVG Repo Mixer Tools -->
<svg fill="#ff5d01" height="800px" width="800px" version="1.1" id="Layer_1" xmlns="http://www.w3.org/2000/svg" xmlns:xlink="http://www.w3.org/1999/xlink" viewBox="0 0 229.862 229.862" xml:space="preserve">
<g id="SVGRepo_bgCarrier" stroke-width="0"/>
<g id="SVGRepo_tracerCarrier" stroke-linecap="round" stroke-linejoin="round"/>
<g id="SVGRepo_iconCarrier"> <g> <path d="M210.465,143.095c1.1-1.558,2.704-2.108,4.217-2.017c0.412-0.092,0.779-0.229,1.238-0.229 c15.859,0.229,16.684,15.996,9.946,27.409c-8.434,14.392-27.73,29.013-45.147,27.867c-40.609-2.613-35.201-52.802-23.33-85.894 c-8.342,8.342-15.996,17.005-22.917,27.455c-7.333,11.046-12.742,23.284-20.121,34.193c-6.463,9.534-19.617,25.117-32.543,15.767 c-15.125-10.863-4.904-47.989-2.567-62.289c0.963-6.004,2.383-20.58,5.729-33.138c-14.209,13.888-25.255,29.563-34.468,48.539 c-7.013,14.438-13.154,42.489-27.272,51.518c-5.958,3.758-11.734,4.354-15.813-2.979c-2.292-4.125-0.871-10.084-0.458-14.484 c1.283-13.338,4.354-25.805,0.229-38.18c-2.154-3.254-4.721-6.233-6.188-9.9c-2.613-6.646-0.092-14.163,7.379-15.95 c7.838-1.879,15.034,3.575,19.296,10.817c6.417-34.33,25.117-81.219,60.685-87.315c15.63-2.704,24.659,3.804,29.609,14.713 c1.65,2.063,2.933,4.721,3.575,8.021c0.275,1.421,0.275,2.796,0.092,4.171c2.292,11.963,1.971,26.217,0.963,39.234 c12.88-22.963,39.555-58.439,62.748-45.743c10.771,5.867,10.175,19.938,8.525,30.48c-1.65,10.634-5.409,20.946-8.663,31.259 c-0.596,3.85-1.008,7.7-1.146,11.642c-0.183,5.133-0.275,10.679,1.054,15.767c1.238,8.021,6.875,10.771,17.005,8.296 C205.424,149.603,208.219,146.624,210.465,143.095z"/> </g> </g>
</svg>